<svg viewBox="0 0 512 512" xmlns="http://www.w3.org/2000/svg" role="img" aria-label="Heatmap app icon">
  <rect width="512" height="512" rx="96" fill="#111110"/>
  <path fill="#EF9F27" d="M256 40c-18 74-96 112-96 214 0 79 63 142 141 138 74-4 131-66 131-140 0-46-24-82-52-112 4 34-10 62-38 78 10-30 6-62-14-88-6 46-40 68-58 106-10 22-8 46 4 66-38-10-64-46-64-88 0-58 46-92 46-174z"/>
  <path fill="#E24B4A" d="M262 220c-10 24-30 40-30 68a44 44 0 0 0 88 4c0-30-18-46-32-62 2 18-8 32-22 36 4-16 0-32-4-46z"/>
</svg>
